<?xml version="1.0" encoding="UTF-8"?>
<svg width="79px" height="89px" viewBox="0 0 79 89" version="1.1" xmlns="http://www.w3.org/2000/svg" xmlns:xlink="http://www.w3.org/1999/xlink">
    <!-- Generator: sketchtool 56.3 (101010) - https://sketch.com -->
    <title>308F57A5-39BA-4A05-A6F5-F987FDD912BD</title>
    <desc>Created with sketchtool.</desc>
    <defs>
        <polygon id="path-1" points="0 0.5 79 0.5 79 88.5 0 88.5"></polygon>
    </defs>
    <g id="Home" stroke="none" stroke-width="1" fill="none" fill-rule="evenodd">
        <g transform="translate(-681.000000, -893.000000)" id="3-steps">
            <g transform="translate(100.000000, 813.000000)">
                <g id="step-2" transform="translate(473.000000, 80.000000)">
                    <g id="icon" transform="translate(108.000000, 0.000000)">
                        <mask id="mask-2" fill="white">
                            <use xlink:href="#path-1"></use>
                        </mask>
                        <g id="Clip-2"></g>
                        <path d="M21.8396235,23.7060571 C20.9277217,23.7060571 20.1841524,22.9727935 20.1841524,22.0708674 C20.1841524,21.1689412 20.9277217,20.4356777 21.8396235,20.4356777 L52.1152467,20.4356777 C53.0283594,20.4356777 53.7707177,21.1689412 53.7707177,22.0708674 C53.7707177,22.9727935 53.0283594,23.7060571 52.1152467,23.7060571 L21.8396235,23.7060571 Z" id="Path" fill="#58595B" mask="url(#mask-2)"></path>
                        <path d="M21.8396235,43.6429309 C20.9277217,43.6429309 20.1841524,42.9084712 20.1841524,42.0077412 C20.1841524,41.1058151 20.9277217,40.3725516 21.8396235,40.3725516 L52.1152467,40.3725516 C53.0283594,40.3725516 53.7707177,41.1058151 53.7707177,42.0077412 C53.7707177,42.9084712 53.0283594,43.6429309 52.1152467,43.6429309 L21.8396235,43.6429309 Z" id="Path" fill="#58595B" mask="url(#mask-2)"></path>
                        <path d="M21.8396235,63.5786086 C20.9277217,63.5786086 20.1841524,62.8453451 20.1841524,61.9434189 C20.1841524,61.0414928 20.9277217,60.3082292 21.8396235,60.3082292 L42.0237759,60.3082292 C42.9356777,60.3082292 43.678036,61.0414928 43.678036,61.9434189 C43.678036,62.8453451 42.9356777,63.5786086 42.0237759,63.5786086 L21.8396235,63.5786086 Z" id="Path" fill="#58595B" mask="url(#mask-2)"></path>
                        <path d="M11.7481528,83.5154825 C5.27038048,83.5154825 0,78.3096701 0,71.9112578 L0,12.1030285 C0,5.7046162 5.27038048,0.5 11.7481528,0.5 L62.2067174,0.5 C68.6844897,0.5 73.9536591,5.7046162 73.9536591,12.1030285 L73.9536591,51.9755801 C73.9536591,52.87631 73.2113009,53.6107698 72.2993991,53.6107698 C71.3862863,53.6107698 70.643928,52.87631 70.643928,51.9755801 L70.643928,12.1030285 C70.643928,7.50727228 66.8594751,3.76918319 62.2067174,3.76918319 L11.7481528,3.76918319 C7.09539504,3.76918319 3.31094215,7.50727228 3.31094215,12.1030285 L3.31094215,71.9112578 C3.31094215,76.507014 7.09539504,80.2451031 11.7481528,80.2451031 L31.9310942,80.2451031 C32.844207,80.2451031 33.5865653,80.9783667 33.5865653,81.8802928 C33.5865653,82.7810227 32.844207,83.5154825 31.9310942,83.5154825 L11.7481528,83.5154825 Z" id="Path" fill="#58595B" mask="url(#mask-2)"></path>
                        <path d="M62.2067174,88.5 C61.9511911,88.5 61.459515,88.4377982 61.0356563,88.0203284 L50.9441855,78.0524896 C50.2999203,77.4149211 50.2999203,76.3778257 50.9441855,75.7402572 C51.3668332,75.3239836 51.8585094,75.2617818 52.1152467,75.2617818 C52.3719839,75.2617818 52.8636601,75.3239836 53.2863078,75.7402572 L62.2067174,84.5525779 L76.1734678,70.7557397 C76.5961155,70.3394661 77.0890027,70.2772643 77.3445289,70.2772643 C77.6012662,70.2772643 78.0929423,70.3394661 78.51559,70.7557397 C78.9370267,71.1732095 79,71.658862 79,71.9112578 C79,72.1648497 78.9370267,72.6505023 78.51559,73.0667759 L63.3777785,88.0203284 C62.9551308,88.4377982 62.4634546,88.5 62.2067174,88.5 L62.2067174,88.5 Z" id="Path" fill="#008C4F" mask="url(#mask-2)"></path>
                    </g>
                </g>
            </g>
        </g>
    </g>
</svg>