<?xml version="1.0" encoding="UTF-8"?>
<svg width="108px" height="105px" viewBox="0 0 108 105" version="1.1" xmlns="http://www.w3.org/2000/svg" xmlns:xlink="http://www.w3.org/1999/xlink">
    <!-- Generator: sketchtool 56.3 (101010) - https://sketch.com -->
    <title>A3249D97-013A-4AB4-B155-A35BA161DADE</title>
    <desc>Created with sketchtool.</desc>
    <defs>
        <polygon id="path-1" points="0.48492931 0.939134483 32.5503118 0.939134483 32.5503118 33 0.48492931 33"></polygon>
        <polygon id="path-3" points="0 0.46 105.548598 0.46 105.548598 91.8875805 0 91.8875805"></polygon>
    </defs>
    <g id="Home" stroke="none" stroke-width="1" fill="none" fill-rule="evenodd">
        <g transform="translate(-300.000000, -885.000000)" id="3-steps">
            <g transform="translate(100.000000, 813.000000)">
                <g id="step-1" transform="translate(105.000000, 72.000000)">
                    <g id="icon" transform="translate(95.000000, 0.000000)">
                        <g id="Group-3" transform="translate(75.000000, 72.000000)">
                            <mask id="mask-2" fill="white">
                                <use xlink:href="#path-1"></use>
                            </mask>
                            <g id="Clip-2"></g>
                            <path d="M12.9762828,27.9137897 L17.8181793,18.8262724 C17.9490414,18.586169 18.1550069,18.3813414 18.4053517,18.2447897 L27.4666966,13.3755828 L4.43497241,4.90937586 L12.9762828,27.9137897 Z M12.4824207,33.0003414 C11.9999379,32.9627897 11.4958345,32.5838586 11.2944207,32.0387897 L0.576248276,2.93051379 C0.454489655,2.60165172 0.454489655,2.23751379 0.576248276,1.90751379 C0.789041379,1.3283069 1.34662759,0.939134483 1.96338621,0.939134483 C2.13748966,0.939134483 2.30931724,0.969858621 2.47431724,1.0313069 L31.584869,11.7267207 C32.1288,11.9281345 32.5065931,12.4322379 32.5475586,13.0114448 C32.5828345,13.5758586 32.276731,14.1243414 31.7669379,14.395169 L21.5904207,19.9038931 L31.089869,29.4033414 C31.6679379,29.9802724 31.6679379,30.9224793 31.089869,31.4994103 C30.8099379,31.7793414 30.4378345,31.9341 30.0406966,31.9341 C29.6446966,31.9341 29.2725931,31.7793414 28.9926621,31.4994103 L19.4909379,21.9976862 L13.9890414,32.215169 C13.7295931,32.6999276 13.2311793,32.9992034 12.6838345,33.0003414 L12.4824207,33.0003414 Z" id="Fill-1" fill="#008C4F" mask="url(#mask-2)"></path>
                        </g>
                        <g id="Group-6">
                            <mask id="mask-4" fill="white">
                                <use xlink:href="#path-3"></use>
                            </mask>
                            <g id="Clip-5"></g>
                            <path d="M5.81838511,3.37684878 C4.22612979,3.37684878 2.9315766,4.66484878 2.9315766,6.2490439 L2.9315766,21.6994341 L102.616683,21.6994341 L102.616683,6.2490439 C102.616683,4.66484878 101.32213,3.37684878 99.7298745,3.37684878 L5.81838511,3.37684878 Z M5.81838511,91.8875805 C4.25432128,91.8830927 2.79174681,91.2749951 1.69453404,90.1754829 C0.597321277,89.0770927 -0.00484893617,87.6185561 -0.000363455869,86.0691415 L-0.000363455869,6.2490439 C0.00417234043,3.06270244 2.61583191,0.464263415 5.82064043,0.45977561 L99.7298745,0.45977561 C102.932428,0.464263415 105.54296,3.06270244 105.548598,6.2512878 L105.548598,72.601239 C105.548598,73.405678 104.891172,74.0597756 104.08264,74.0597756 C103.274109,74.0597756 102.616683,73.405678 102.616683,72.601239 L102.616683,24.6153854 L2.9315766,24.6153854 L2.9315766,86.0646537 C2.9315766,87.6825073 4.22612979,88.9705073 5.81612979,88.9705073 L71.5383851,88.9705073 C72.346917,88.9705073 73.0043426,89.6246049 73.0043426,90.4290439 C73.0043426,91.2334829 72.346917,91.8875805 71.5383851,91.8875805 L5.81838511,91.8875805 Z" id="Fill-4" fill="#58595B" mask="url(#mask-4)"></path>
                        </g>
                        <path d="M13,15 C11.897619,15 11,14.1035714 11,13 C11,11.897619 11.897619,11 13,11 C14.1035714,11 15,11.897619 15,13 C15,14.1035714 14.1035714,15 13,15" id="Fill-7" fill="#58595B"></path>
                        <path d="M23,15 C21.897619,15 21,14.1035714 21,13 C21,11.897619 21.897619,11 23,11 C24.102381,11 25,11.897619 25,13 C25,14.1035714 24.102381,15 23,15" id="Fill-9" fill="#58595B"></path>
                        <path d="M34,15 C32.897619,15 32,14.1035714 32,13 C32,11.897619 32.897619,11 34,11 C35.102381,11 36,11.897619 36,13 C36,14.1035714 35.102381,15 34,15" id="Fill-11" fill="#58595B"></path>
                        <path d="M76.4246575,39 C75.6389041,39 75,38.3273077 75,37.5 C75,36.6726923 75.6389041,36 76.4246575,36 L89.5753425,36 C90.3610959,36 91,36.6726923 91,37.5 C91,38.3273077 90.3610959,39 89.5753425,39 L76.4246575,39 Z" id="Fill-13" fill="#58595B"></path>
                        <path d="M76.4246575,50 C75.6389041,50 75,49.3273077 75,48.5 C75,47.6726923 75.6389041,47 76.4246575,47 L89.5753425,47 C90.3610959,47 91,47.6726923 91,48.5 C91,49.3273077 90.3610959,50 89.5753425,50 L76.4246575,50 Z" id="Fill-15" fill="#58595B"></path>
                        <path d="M76.4246575,61 C75.6389041,61 75,60.3273077 75,59.5 C75,58.6726923 75.6389041,58 76.4246575,58 L89.5753425,58 C90.3610959,58 91,58.6726923 91,59.5 C91,60.3273077 90.3610959,61 89.5753425,61 L76.4246575,61 Z" id="Fill-17" fill="#58595B"></path>
                        <path d="M24.8572626,37.8804978 C21.0364898,39.3403417 17.446329,41.2969616 14.1629049,43.7063251 L13.2751601,44.3577791 L16.8429313,52.2418396 L22.9239269,52.2418396 C24.5102249,52.2463557 25.807698,53.5549088 25.8121759,55.1581404 L25.8121759,76.0645056 L49.2204268,76.0645056 L49.2204268,55.177334 C49.2249047,53.5774895 50.5212583,52.2689364 52.1120343,52.2644203 L58.2008662,52.2644203 L61.7686374,44.3803598 L60.8808927,43.7289058 C57.5985879,41.3184133 54.0084272,39.3617934 50.2111634,37.9121108 L48.0046755,37.1183983 L47.622934,38.5274356 C47.0161778,40.7629275 45.7970681,42.770354 44.0965835,44.3295532 C42.2852707,45.7431066 39.926534,46.5593999 37.5330935,46.5593999 C35.139653,46.5593999 32.7809163,45.7431066 30.8901207,44.261811 C29.2568047,42.7658379 28.0298586,40.7516371 27.421983,38.5059839 L27.039122,37.0958175 L24.8572626,37.8804978 Z M24.3568567,79 C23.9336946,78.9966129 23.5698648,78.8408059 23.2967125,78.5619339 C23.0246798,78.2819329 22.8757894,77.912738 22.8791479,77.5209624 L22.8791479,55.1547532 L15.9383944,55.1547532 C15.3730588,55.1547532 14.8547412,54.8183004 14.6185317,54.2978147 L10.1395068,44.5260055 C9.85292083,43.9095516 10.0186033,43.1858394 10.5380404,42.7601927 C14.5177789,39.5017939 18.9621,36.9151717 23.7501005,35.0703264 C25.0901137,34.5701633 26.5017734,34.2145169 27.9302252,34.0180646 C28.0164249,34.0056452 28.0891909,34 28.1597179,34 C28.8717049,34 29.4739831,34.5159696 29.5915282,35.2250044 C29.814304,36.5775899 30.7972042,40.4219585 32.6521765,41.9190606 C34.0481636,43.0085807 35.7676793,43.6001957 37.510704,43.6001957 C39.2537287,43.6001957 40.9732444,43.0085807 42.3513198,41.9326091 C44.5589272,40.2469579 45.373906,35.4508117 45.4063708,35.2464561 C45.5250353,34.5385503 46.1273136,34.0225807 46.8393006,34.0225807 C46.9098276,34.0225807 46.9825935,34.0282259 47.05424,34.0383872 C48.4983645,34.2370976 49.9089048,34.5927441 51.2612322,35.0985523 C56.0357989,36.9366234 60.4812396,39.5232456 64.4598586,42.7827734 C64.9804151,43.2084201 65.1460976,43.9321324 64.8628701,44.5440701 L60.3827257,54.3158793 C60.1442772,54.8397521 59.6248402,55.1762049 59.0583851,55.177334 L52.1198706,55.177334 L52.1198706,77.5322528 C52.1198706,78.3417718 51.4672159,79 50.6645513,79 L24.3568567,79 Z" id="Fill-19" fill="#58595B"></path>
                    </g>
                </g>
            </g>
        </g>
    </g>
</svg>