<?xml version="1.0" encoding="UTF-8"?>
<svg width="99px" height="100px" viewBox="0 0 99 100" version="1.1" xmlns="http://www.w3.org/2000/svg" xmlns:xlink="http://www.w3.org/1999/xlink">
    <!-- Generator: sketchtool 56.3 (101010) - https://sketch.com -->
    <title>F472F336-55C3-4E71-92B7-1993257A5F63</title>
    <desc>Created with sketchtool.</desc>
    <defs>
        <polygon id="path-1" points="0.00034137931 -0.000114718615 99 -0.000114718615 99 99.8405281 0.00034137931 99.8405281"></polygon>
    </defs>
    <g id="Home" stroke="none" stroke-width="1" fill="none" fill-rule="evenodd">
        <g transform="translate(-1052.000000, -885.000000)" id="3-steps">
            <g transform="translate(100.000000, 813.000000)">
                <g id="step-3" transform="translate(841.000000, 72.000000)">
                    <g id="icon" transform="translate(111.000000, 0.000000)">
                        <mask id="mask-2" fill="white">
                            <use xlink:href="#path-1"></use>
                        </mask>
                        <g id="Clip-2"></g>
                        <path d="M57.3566172,13.771855 C56.4428586,13.771855 55.6941,13.0502749 55.6508586,12.1290844 C55.6076172,11.1792143 56.337031,10.3715952 57.2792379,10.326855 L87.0520655,10.3280022 C87.5641345,10.3337381 87.9897207,10.5195823 88.3072034,10.8488247 C88.6258241,11.1780671 88.7976517,11.6128506 88.7910201,12.0728723 C88.777169,13.007829 88.0113414,13.7695606 87.0850655,13.7695606 L57.3566172,13.771855 Z" id="Path" fill="#008C4F" mask="url(#mask-2)"></path>
                        <path d="M57.3566172,24.0965303 C56.4428586,24.0965303 55.6941,23.3749502 55.6508586,22.4537597 C55.6076172,21.5038896 56.337031,20.6962706 57.2792379,20.6515303 L87.0520655,20.6526775 C88.050031,20.6652965 88.8044793,21.4488247 88.7910066,22.3975476 C88.777169,23.3325043 88.0113414,24.0942359 87.0850655,24.0942359 L57.3566172,24.0965303 Z" id="Path" fill="#008C4F" mask="url(#mask-2)"></path>
                        <path d="M54.0509276,42.4216818 C53.1201,42.4216818 52.3554103,41.658803 52.345169,40.7215519 L52.345169,34.4189113 L47.2244793,34.4189113 C46.2834103,34.4189113 45.5175596,33.646855 45.5175596,32.698132 L45.5175596,1.72410606 C45.513031,0.823564935 46.1787207,0.0847770563 47.064031,-0.000114718615 L97.2934448,0.00332683983 C98.2345138,0.00332683983 99.0003414,0.774235931 99.0003414,1.72410606 L99.0003414,32.698132 C98.9866862,33.6904481 98.2208586,34.4510325 97.2945828,34.4510325 C96.3273414,34.4372662 95.5728931,33.6548853 95.5865483,32.7050152 L95.5865483,3.44488528 L48.9313759,3.44488528 L48.9313759,30.9773528 L54.0520655,30.9773528 C54.9931345,30.9773528 55.7589621,31.7482619 55.7589621,32.698132 L55.7589621,37.2054264 L63.2556517,31.3215087 C63.5446862,31.1012489 63.9111,30.9773528 64.2809276,30.9773528 L88.1899966,30.9773528 C89.1879621,30.9899719 89.9424103,31.7735 89.9287552,32.7222229 C89.9151,33.6571797 89.1492724,34.4189113 88.2229966,34.4189113 L64.8442034,34.4189113 L55.0898586,42.0683485 C54.8019621,42.2909026 54.4401,42.4170931 54.0714103,42.4216818 L54.0509276,42.4216818 Z" id="Path" fill="#008C4F" mask="url(#mask-2)"></path>
                        <path d="M32.4313759,66.5401234 C23.9606172,66.5401234 17.0693069,59.5927641 17.0693069,51.0531104 C17.0693069,42.5134567 23.9606172,35.5660974 32.4313759,35.5660974 C40.9021345,35.5660974 47.7934448,42.5134567 47.7934448,51.0531104 C47.7934448,59.5927641 40.9021345,66.5401234 32.4313759,66.5401234 L32.4313759,66.5401234 Z" id="Path" fill="#58595B" mask="url(#mask-2)"></path>
                        <path d="M32.4313759,39.0076558 C25.8427552,39.0076558 20.4831,44.4109026 20.4831,51.0531104 C20.4831,57.6953182 25.8427552,63.0985649 32.4313759,63.0985649 C39.0188586,63.0985649 44.3796517,57.6953182 44.3796517,51.0531104 C44.3796517,44.4109026 39.0188586,39.0076558 32.4313759,39.0076558 L32.4313759,39.0076558 Z" id="Path" fill="#FFFFFF" mask="url(#mask-2)"></path>
                        <path d="M63.1304793,99.8406429 C62.1894103,99.8268766 61.4349621,99.0444957 61.4486172,98.0946255 C61.4486172,85.1199502 48.4306862,74.5704264 32.4313759,74.5704264 C17.5779621,74.5704264 5.22799655,83.6618766 3.70316897,95.7199502 L3.62123793,96.3669632 L54.0520655,96.3669632 C55.050031,96.3795823 55.8044793,97.1631104 55.7908241,98.1118333 C55.777169,99.04679 55.0113414,99.8085216 54.0850655,99.8085216 L1.70723793,99.8085216 C0.766168966,99.8085216 0.00034137931,99.0364654 0.00034137931,98.0877424 C0.00034137931,83.2225043 14.5487897,71.128868 32.4313759,71.128868 C50.3139621,71.128868 64.8624103,83.2225043 64.8624103,98.0877424 C64.8487552,99.0800584 64.0829276,99.8406429 63.1566517,99.8406429 L63.1304793,99.8406429 Z" id="Path" fill="#58595B" mask="url(#mask-2)"></path>
                    </g>
                </g>
            </g>
        </g>
    </g>
</svg>